<?xml version="1.0" encoding="UTF-8"?>
<svg id="Layer_1" xmlns="http://www.w3.org/2000/svg" version="1.1" viewBox="0 0 25 25">
  <!-- Generator: Adobe Illustrator 30.1.0, SVG Export Plug-In . SVG Version: 2.1.1 Build 136)  -->
  <defs>
    <style>
      .st0 {
        fill: #bff747;
      }

      .st1 {
        fill: #1b2112;
      }
    </style>
  </defs>
  <circle class="st0" cx="12.5" cy="12.5" r="12.4"/>
  <path class="st1" d="M18.7,5.1c-1.2-.3-2.4.5-2.7,1.8l-.8,3.7c0,.1,0,.2-.1.3-.3.3-.7.5-1.1.2-.3-.2-.4-.5-.4-.9l.5-2.3c0,0,0-.2,0-.3.2-.6,0-1.3-.3-1.8-.7-1-2.1-1.3-3.1-.7l-6.7,4.4c-1.1.7-1.4,2.3-.5,3.3.7.9,2.1,1.1,3.1.4h.1c.3-.2.7-.2,1.1,0,.2.2.4.5.4.8v.5c-.1,0-.9,1.3-.9,1.3-.7,1-.4,2.4.6,3.1s2.4.4,3.1-.6l1.4-2.1s0,0,0,0c.2-.3.8-.4,1.2-.2.3.2.4.5.4.9v.6c-.4,1.1.3,2.2,1.3,2.6,0,0,.2,0,.3,0,1.2.2,2.4-.5,2.7-1.8l2.2-10.8c.3-1.2-.5-2.4-1.8-2.7Z"/>
</svg>