<?xml version="1.0" encoding="UTF-8"?>
<svg id="Layer_1" xmlns="http://www.w3.org/2000/svg" version="1.1" viewBox="0 0 97 20">
  <!-- Generator: Adobe Illustrator 30.1.0, SVG Export Plug-In . SVG Version: 2.1.1 Build 136)  -->
  <defs>
    <style>
      .st0, .st1 {
        fill: #fff;
      }

      .st1 {
        stroke: #fff;
        stroke-miterlimit: 10;
        stroke-width: .8px;
      }

      .st2 {
        fill: #bff747;
      }
    </style>
  </defs>
  <path class="st2" d="M20.3.4c-1.6-.3-3.1.7-3.4,2.3l-1,4.7c0,.2-.1.3-.2.4-.3.4-.9.6-1.4.3-.4-.2-.6-.7-.5-1.1l.6-2.9c0-.1,0-.2,0-.3.2-.8.1-1.6-.4-2.4C13.2,0,11.4-.4,10,.5L1.4,6.2C0,7.1-.4,9.1.7,10.4c.9,1.2,2.7,1.4,4,.5h.2c.4-.3,1-.3,1.4,0,.3.2.5.6.5,1.1v.6c-.1,0-1.2,1.6-1.2,1.6-.9,1.3-.5,3.1.8,4,1.3.9,3.1.5,4-.8l1.8-2.7s0,0,0,0c.3-.4,1.1-.5,1.5-.2.4.2.6.7.5,1.1l-.2.8c-.3,1.4.5,2.9,1.9,3.3.1,0,.2,0,.4.1,1.6.3,3.1-.7,3.4-2.3l2.9-13.8c.3-1.6-.7-3.1-2.3-3.4Z"/>
  <g>
    <g>
      <path class="st1" d="M30.8,1l-4.3,11.3c-.2.4.2.9.6.9h2.1c.3,0,.5-.2.6-.4l.5-1.4c0-.3.4-.4.6-.4h3.6c.3,0,.5.2.6.4l.5,1.4c0,.3.4.4.6.4h2.1c.5,0,.8-.5.6-.9l-4.3-11.3c0-.3-.4-.4-.6-.4h-2.7c-.3,0-.5.2-.6.4ZM31.3,8.6l1.4-4.3,1.4,4.3h-2.9Z"/>
      <path class="st1" d="M48.3,5.6h-3.2c-.4,0-.7-.3-.7-.7V1.3c0-.4-.3-.7-.7-.7h-1.9c-.4,0-.7.3-.7.7v11.3c0,.4.3.7.7.7h1.9c.4,0,.7-.3.7-.7v-3.8c0-.4.3-.7.7-.7h3.2c.4,0,.7.3.7.7v3.8c0,.4.3.7.7.7h1.9c.4,0,.7-.3.7-.7V1.3c0-.4-.3-.7-.7-.7h-1.9c-.4,0-.7.3-.7.7v3.6c0,.4-.3.7-.7.7Z"/>
      <path class="st1" d="M61.9,6.2l-2.8-5.2c-.1-.2-.3-.4-.6-.4h-2.4c-.4,0-.7.3-.7.7v11.3c0,.4.3.7.7.7h1.9c.4,0,.7-.3.7-.7v-3.8c0-.7.9-.9,1.3-.3l1.1,1.9c.1.2.3.3.6.3h1.7c.2,0,.5-.1.6-.3l1.1-1.9c.3-.6,1.3-.4,1.3.3v3.8c0,.4.3.7.7.7h1.9c.4,0,.7-.3.7-.7V1.3c0-.4-.3-.7-.7-.7h-2.4c-.2,0-.5.1-.6.4l-2.8,5.2c-.3.5-.9.5-1.2,0Z"/>
      <path class="st1" d="M73.4,13.2h8.7c.4,0,.7-.3.7-.7v-1.2c0-.4-.3-.7-.7-.7h-5.4c-.4,0-.7-.3-.7-.7v-1.3c0-.4.3-.7.7-.7h4c.4,0,.7-.3.7-.7v-1.2c0-.4-.3-.7-.7-.7h-4c-.4,0-.7-.3-.7-.7v-1.1c0-.4.3-.7.7-.7h5.4c.4,0,.7-.3.7-.7v-1.2c0-.4-.3-.7-.7-.7h-8.7c-.4,0-.7.3-.7.7v11.3c0,.4.3.7.7.7Z"/>
      <path class="st1" d="M95.4,1.6c-.7-.7-1.7-1.1-3.1-1.1h-6.4c-.4,0-.7.3-.7.7v11.3c0,.4.3.7.7.7h6.4c1.4,0,2.4-.4,3.1-1.1s1.1-1.7,1.1-3.1v-4.3c0-1.4-.4-2.4-1.1-3.1ZM93.2,8.4c0,1.3-1,2.3-2.3,2.3h-1.7c-.4,0-.7-.3-.7-.7V3.8c0-.4.3-.7.7-.7h1.7c1.3,0,2.3,1,2.3,2.3v3Z"/>
    </g>
    <g>
      <path class="st0" d="M26,18.4h1.2c0,.3,0,.4.2.6s.3.2.6.2.3,0,.5-.1c.1,0,.2-.2.2-.3s0-.3-.2-.4c-.1,0-.3-.2-.6-.3-.3-.1-.5-.2-.7-.3-.6-.3-.9-.7-.9-1.2s0-.5.2-.7.4-.4.7-.5c.3-.1.6-.2.9-.2s.6,0,.9.2c.3.1.5.3.6.5.2.2.2.5.2.8h-1.1c0-.2,0-.3-.2-.5-.1-.1-.3-.2-.5-.2s-.4,0-.5.1c-.1,0-.2.2-.2.3s0,.2.2.3c.1,0,.4.2.7.3.3.1.6.2.8.3.5.3.8.7.8,1.2s-.2.7-.5,1c-.3.2-.7.4-1.3.4s-.7,0-1-.2c-.3-.1-.5-.3-.7-.6s-.2-.5-.2-.8Z"/>
      <path class="st0" d="M30.9,19c.1-.1.3-.2.4-.2s.3,0,.4.2.2.2.2.4,0,.3-.2.4c-.1.1-.3.2-.4.2s-.3,0-.4-.2c-.1-.1-.2-.2-.2-.4s0-.3.2-.4Z"/>
      <path class="st0" d="M34.9,17.4c0-.5,0-.9.2-1.2.2-.3.4-.6.7-.8.3-.2.7-.3,1.1-.3.6,0,1.1.1,1.4.4.3.3.5.7.6,1.2h-1.1c0-.3-.1-.5-.3-.6s-.3-.2-.6-.2-.5.1-.7.4c-.2.2-.2.6-.2,1v.3c0,.5,0,.8.2,1.1.2.2.4.4.8.4s.5,0,.7-.2v-.7h-.8v-.8h1.9v2c-.2.2-.4.4-.8.5s-.7.2-1.1.2c-.6,0-1.1-.2-1.5-.6-.4-.4-.6-.9-.6-1.6v-.4Z"/>
      <path class="st0" d="M41.8,15.1c.6,0,1,.1,1.3.4.3.3.5.6.5,1.1s0,.6-.2.8c-.1.2-.3.4-.6.5l1,1.9h0s-1.2,0-1.2,0l-.8-1.7h-.6v1.7h-1.1v-4.8h1.9ZM41.1,17.3h.7c.2,0,.4,0,.5-.2.1-.1.2-.3.2-.5s0-.4-.2-.5c-.1-.1-.3-.2-.5-.2h-.7v1.3Z"/>
      <path class="st0" d="M46,15.1h1.1l1.8,4.8h-1.2l-.3-.9h-1.6l-.3.9h-1.2l1.7-4.8ZM47.1,18.1l-.5-1.7-.5,1.7h1Z"/>
      <path class="st0" d="M49.5,19.9v-4.8h1.9c.4,0,.7,0,1,.2.3.1.5.3.7.6.2.2.2.5.2.8,0,.5-.2.8-.5,1.1-.3.3-.8.4-1.4.4h-.7v1.6h-1.1ZM50.7,17.4h.8c.2,0,.4,0,.5-.2s.2-.3.2-.5,0-.4-.2-.5-.3-.2-.5-.2h-.8v1.4Z"/>
      <path class="st0" d="M54.2,19.9v-4.8h1.1v1.9h1.7v-1.9h1.1v4.8h-1.1v-2h-1.7v2h-1.1Z"/>
      <path class="st0" d="M60.5,19.9h-1.1v-4.8h1.1v4.8Z"/>
      <path class="st0" d="M61.5,17.4c0-.5,0-.9.2-1.2.2-.4.4-.6.7-.8.3-.2.7-.3,1.1-.3.6,0,1,.2,1.4.5s.6.7.6,1.3h-1.1c0-.3,0-.5-.2-.6-.1-.1-.3-.2-.6-.2s-.5.1-.6.3c-.1.2-.2.6-.2,1v.3c0,.5,0,.9.2,1.1.1.2.3.3.7.3s.5,0,.6-.2.2-.3.2-.6h1.1c0,.3-.1.6-.3.9-.2.3-.4.5-.7.6-.3.1-.6.2-1,.2-.6,0-1.1-.2-1.5-.6-.4-.4-.5-1-.5-1.7v-.2Z"/>
      <path class="st0" d="M68.3,19.9v-4.8h1.5c.4,0,.8,0,1.1.3.3.2.6.5.8.8.2.3.3.7.3,1.2v.2c0,.4,0,.8-.3,1.2s-.4.6-.8.8-.7.3-1.1.3h-1.6ZM69.5,16v3h.4c.3,0,.6-.1.8-.4.2-.2.3-.6.3-1v-.2c0-.5,0-.8-.3-1s-.4-.4-.8-.4h-.4Z"/>
      <path class="st0" d="M76.3,15.1v.9h-2.1v1h1.8v.9h-1.8v1.1h2.1v.9h-3.3v-4.8h3.3Z"/>
      <path class="st0" d="M76.9,18.4h1.2c0,.3,0,.4.2.6.1.1.3.2.6.2s.3,0,.5-.1.2-.2.2-.3,0-.3-.2-.4-.3-.2-.6-.3-.5-.2-.7-.3c-.6-.3-.9-.7-.9-1.2s0-.5.2-.7c.2-.2.4-.4.7-.5.3-.1.6-.2,1-.2s.6,0,.9.2c.3.1.5.3.6.5s.2.5.2.8h-1.1c0-.2,0-.3-.2-.5-.1-.1-.3-.2-.5-.2s-.4,0-.5.1-.2.2-.2.3,0,.2.2.3.4.2.7.3c.3.1.6.2.8.3.5.3.8.7.8,1.2s-.2.7-.5,1c-.3.2-.7.4-1.3.4s-.7,0-1-.2c-.3-.1-.5-.3-.7-.6s-.2-.5-.2-.8Z"/>
      <path class="st0" d="M82.8,19.9h-1.1v-4.8h1.1v4.8Z"/>
      <path class="st0" d="M83.8,17.4c0-.5,0-.9.2-1.2.2-.3.4-.6.7-.8.3-.2.7-.3,1.1-.3.6,0,1.1.1,1.4.4.3.3.5.7.6,1.2h-1.1c0-.3-.1-.5-.3-.6s-.3-.2-.6-.2-.5.1-.7.4-.2.6-.2,1v.3c0,.5,0,.8.2,1.1.2.2.4.4.8.4s.5,0,.7-.2v-.7h-.8v-.8h1.9v2c-.2.2-.4.4-.8.5-.3.1-.7.2-1.1.2-.6,0-1.1-.2-1.5-.6-.4-.4-.6-.9-.6-1.6v-.4Z"/>
      <path class="st0" d="M92.1,15.1v.9h-2.1v1h1.8v.9h-1.8v1.1h2.1v.9h-3.3v-4.8h3.3Z"/>
      <path class="st0" d="M94.8,15.1c.6,0,1,.1,1.3.4.3.3.5.6.5,1.1s0,.6-.2.8c-.1.2-.3.4-.6.5l1,1.9h0s-1.2,0-1.2,0l-.8-1.7h-.6v1.7h-1.1v-4.8h1.9ZM94.1,17.3h.7c.2,0,.4,0,.5-.2.1-.1.2-.3.2-.5s0-.4-.2-.5c-.1-.1-.3-.2-.5-.2h-.7v1.3Z"/>
    </g>
  </g>
</svg>