<?xml version="1.0" encoding="UTF-8"?>
<svg id="Layer_1" xmlns="http://www.w3.org/2000/svg" version="1.1" viewBox="0 0 97 20">
  <!-- Generator: Adobe Illustrator 30.1.0, SVG Export Plug-In . SVG Version: 2.1.1 Build 136)  -->
  <defs>
    <style>
      .st0 {
        stroke: #fff;
        stroke-miterlimit: 10;
        stroke-width: .8px;
      }

      .st0, .st1 {
        fill: #fff;
      }

      .st1 {
        font-family: Araboto-Black, Araboto-Black;
        font-size: 6.7px;
        font-weight: 800;
      }

      .st2 {
        fill: #bff747;
      }
    </style>
  </defs>
  <path class="st2" d="M20.3.4c-1.6-.3-3.1.7-3.4,2.3l-1,4.7c0,.2-.1.3-.2.4-.3.4-.9.6-1.4.3-.4-.2-.6-.7-.5-1.1l.6-2.9c0-.1,0-.2,0-.3.2-.8.1-1.6-.4-2.4C13.2,0,11.4-.4,10,.5L1.4,6.2C0,7.1-.4,9.1.7,10.4c.9,1.2,2.7,1.4,4,.5h.2c.4-.3,1-.3,1.4,0,.3.2.5.6.5,1.1v.6c-.1,0-1.2,1.6-1.2,1.6-.9,1.3-.5,3.1.8,4,1.3.9,3.1.5,4-.8l1.8-2.7s0,0,0,0c.3-.4,1.1-.5,1.5-.2.4.2.6.7.5,1.1l-.2.8c-.3,1.4.5,2.9,1.9,3.3.1,0,.2,0,.4.1,1.6.3,3.1-.7,3.4-2.3l2.9-13.8c.3-1.6-.7-3.1-2.3-3.4Z"/>
  <g>
    <g>
      <path class="st0" d="M30.8,1l-4.3,11.3c-.2.4.2.9.6.9h2.1c.3,0,.5-.2.6-.4l.5-1.4c0-.3.4-.4.6-.4h3.6c.3,0,.5.2.6.4l.5,1.4c0,.3.4.4.6.4h2.1c.5,0,.8-.5.6-.9l-4.3-11.3c0-.3-.4-.4-.6-.4h-2.7c-.3,0-.5.2-.6.4ZM31.3,8.6l1.4-4.3,1.4,4.3h-2.9Z"/>
      <path class="st0" d="M48.3,5.6h-3.2c-.4,0-.7-.3-.7-.7V1.3c0-.4-.3-.7-.7-.7h-1.9c-.4,0-.7.3-.7.7v11.3c0,.4.3.7.7.7h1.9c.4,0,.7-.3.7-.7v-3.8c0-.4.3-.7.7-.7h3.2c.4,0,.7.3.7.7v3.8c0,.4.3.7.7.7h1.9c.4,0,.7-.3.7-.7V1.3c0-.4-.3-.7-.7-.7h-1.9c-.4,0-.7.3-.7.7v3.6c0,.4-.3.7-.7.7Z"/>
      <path class="st0" d="M61.9,6.2l-2.8-5.2c-.1-.2-.3-.4-.6-.4h-2.4c-.4,0-.7.3-.7.7v11.3c0,.4.3.7.7.7h1.9c.4,0,.7-.3.7-.7v-3.8c0-.7.9-.9,1.3-.3l1.1,1.9c.1.2.3.3.6.3h1.7c.2,0,.5-.1.6-.3l1.1-1.9c.3-.6,1.3-.4,1.3.3v3.8c0,.4.3.7.7.7h1.9c.4,0,.7-.3.7-.7V1.3c0-.4-.3-.7-.7-.7h-2.4c-.2,0-.5.1-.6.4l-2.8,5.2c-.3.5-.9.5-1.2,0Z"/>
      <path class="st0" d="M73.4,13.2h8.7c.4,0,.7-.3.7-.7v-1.2c0-.4-.3-.7-.7-.7h-5.4c-.4,0-.7-.3-.7-.7v-1.3c0-.4.3-.7.7-.7h4c.4,0,.7-.3.7-.7v-1.2c0-.4-.3-.7-.7-.7h-4c-.4,0-.7-.3-.7-.7v-1.1c0-.4.3-.7.7-.7h5.4c.4,0,.7-.3.7-.7v-1.2c0-.4-.3-.7-.7-.7h-8.7c-.4,0-.7.3-.7.7v11.3c0,.4.3.7.7.7Z"/>
      <path class="st0" d="M95.4,1.6c-.7-.7-1.7-1.1-3.1-1.1h-6.4c-.4,0-.7.3-.7.7v11.3c0,.4.3.7.7.7h6.4c1.4,0,2.4-.4,3.1-1.1s1.1-1.7,1.1-3.1v-4.3c0-1.4-.4-2.4-1.1-3.1ZM93.2,8.4c0,1.3-1,2.3-2.3,2.3h-1.7c-.4,0-.7-.3-.7-.7V3.8c0-.4.3-.7.7-.7h1.7c1.3,0,2.3,1,2.3,2.3v3Z"/>
    </g>
    <text class="st1" transform="translate(25.8 19.9)"><tspan x="0" y="0">S. GRAPHIC DESIGER</tspan></text>
  </g>
</svg>