<?xml version="1.0" encoding="UTF-8"?>
<svg id="Layer_1" xmlns="http://www.w3.org/2000/svg" version="1.1" viewBox="0 0 481 100">
  <!-- Generator: Adobe Illustrator 30.1.0, SVG Export Plug-In . SVG Version: 2.1.1 Build 136)  -->
  <defs>
    <style>
      .st0 {
        stroke: #fff;
        stroke-miterlimit: 10;
        stroke-width: 3.8px;
      }

      .st0, .st1 {
        fill: #fff;
      }

      .st1 {
        font-family: Araboto-Black, Araboto-Black;
        font-size: 33.1px;
        font-weight: 800;
      }

      .st2 {
        fill: #bff747;
      }
    </style>
  </defs>
  <path class="st2" d="M100.4,2.6c-7.7-1.6-15.3,3.4-17,11.1l-4.8,23.2c-.2.8-.5,1.5-.9,2.1-1.6,2.1-4.6,2.9-7.1,1.3-1.8-1.2-2.8-3.4-2.4-5.5l3-14.5c.1-.5.2-1.1.2-1.6,1.1-3.8.6-8.1-1.8-11.7C65.4.5,56.5-1.3,49.9,3L7.2,31C.2,35.6-1.5,45.4,3.9,52c4.7,5.8,13.3,6.7,19.6,2.6l.8-.6c2.1-1,4.7-.9,6.7.6,1.6,1.2,2.6,3.2,2.7,5.3l-.7,2.9-5.3,8c-4.4,6.5-2.6,15.4,4,19.7,6.5,4.4,15.4,2.6,19.7-4l8.7-13.1s0,0,0,0c1.6-2.1,5.2-2.6,7.6-1.1,1.8,1.2,2.8,3.4,2.3,5.5l-.8,3.9c-1.5,7.1,2.6,14.1,9.3,16.5.6.2,1.2.4,1.9.5,7.8,1.6,15.4-3.4,17-11.2l14.1-68.2c1.6-7.7-3.4-15.3-11.1-17Z"/>
  <g>
    <g>
      <path class="st0" d="M152.3,5.5l-21.2,55.9c-.8,2.2.8,4.5,3.1,4.5h10.2c1.4,0,2.7-.9,3.1-2.2l2.4-6.8c.5-1.3,1.7-2.2,3.1-2.2h17.7c1.4,0,2.7.9,3.1,2.2l2.4,6.8c.5,1.3,1.7,2.2,3.1,2.2h10.2c2.3,0,3.9-2.3,3.1-4.5l-21.2-55.9c-.5-1.3-1.7-2.2-3.1-2.2h-13.3c-1.4,0-2.6.9-3.1,2.2ZM154.9,43.1l7.1-21,7.1,21h-14.3Z"/>
      <path class="st0" d="M239.1,27.9h-15.7c-1.8,0-3.3-1.5-3.3-3.3V6.7c0-1.8-1.5-3.3-3.3-3.3h-9.4c-1.8,0-3.3,1.5-3.3,3.3v55.9c0,1.8,1.5,3.3,3.3,3.3h9.4c1.8,0,3.3-1.5,3.3-3.3v-18.8c0-1.8,1.5-3.3,3.3-3.3h15.7c1.8,0,3.3,1.5,3.3,3.3v18.8c0,1.8,1.5,3.3,3.3,3.3h9.4c1.8,0,3.3-1.5,3.3-3.3V6.7c0-1.8-1.5-3.3-3.3-3.3h-9.4c-1.8,0-3.3,1.5-3.3,3.3v17.9c0,1.8-1.5,3.3-3.3,3.3Z"/>
      <path class="st0" d="M306.1,31l-14-25.9c-.6-1.1-1.7-1.8-2.9-1.8h-11.7c-1.8,0-3.3,1.5-3.3,3.3v55.9c0,1.8,1.5,3.3,3.3,3.3h9.4c1.8,0,3.3-1.5,3.3-3.3v-18.7c0-3.4,4.6-4.6,6.3-1.6l5.3,9.5c.6,1.1,1.7,1.7,2.9,1.7h8.6c1.2,0,2.3-.7,2.9-1.7l5.3-9.5c1.7-3,6.3-1.8,6.3,1.6v18.7c0,1.8,1.5,3.3,3.3,3.3h9.4c1.8,0,3.3-1.5,3.3-3.3V6.7c0-1.8-1.5-3.3-3.3-3.3h-11.7c-1.2,0-2.4.7-2.9,1.8l-14,25.9c-1.3,2.3-4.6,2.3-5.9,0Z"/>
      <path class="st0" d="M362.9,65.9h42.9c1.8,0,3.3-1.5,3.3-3.3v-5.8c0-1.8-1.5-3.3-3.3-3.3h-26.8c-1.8,0-3.3-1.5-3.3-3.3v-6.3c0-1.8,1.5-3.3,3.3-3.3h19.7c1.8,0,3.3-1.5,3.3-3.3v-5.8c0-1.8-1.5-3.3-3.3-3.3h-19.7c-1.8,0-3.3-1.5-3.3-3.3v-5.4c0-1.8,1.5-3.3,3.3-3.3h26.8c1.8,0,3.3-1.5,3.3-3.3v-5.8c0-1.8-1.5-3.3-3.3-3.3h-42.9c-1.8,0-3.3,1.5-3.3,3.3v55.9c0,1.8,1.5,3.3,3.3,3.3Z"/>
      <path class="st0" d="M471.4,8.6c-3.5-3.5-8.6-5.2-15.3-5.2h-31.5c-1.8,0-3.3,1.5-3.3,3.3v55.9c0,1.8,1.5,3.3,3.3,3.3h31.5c6.7,0,11.8-1.7,15.3-5.2,3.5-3.5,5.2-8.6,5.2-15.3v-21.5c0-6.7-1.7-11.8-5.2-15.3ZM460.5,42c0,6.3-5.1,11.4-11.4,11.4h-8.5c-1.8,0-3.3-1.5-3.3-3.3v-30.9c0-1.8,1.5-3.3,3.3-3.3h8.5c6.3,0,11.4,5.1,11.4,11.4v14.8Z"/>
    </g>
    <text class="st1" transform="translate(127.9 98.9)"><tspan x="0" y="0">S. GRAPHIC DESIGER</tspan></text>
  </g>
</svg>