<?xml version="1.0" encoding="UTF-8"?>
<svg id="Layer_1" xmlns="http://www.w3.org/2000/svg" version="1.1" viewBox="0 0 50 50">
  <!-- Generator: Adobe Illustrator 30.1.0, SVG Export Plug-In . SVG Version: 2.1.1 Build 136)  -->
  <defs>
    <style>
      .st0 {
        fill: #fff;
      }
    </style>
  </defs>
  <path class="st0" d="M44.8,4.8c-3.5-.7-6.9,1.5-7.6,5l-2.2,10.4c0,.4-.2.7-.4.9-.7,1-2.1,1.3-3.2.6-.8-.5-1.3-1.5-1.1-2.5l1.4-6.5c0-.2,0-.5.1-.7.5-1.7.3-3.6-.8-5.2-1.9-3-5.9-3.8-8.9-1.9L3,17.5c-3.1,2.1-3.9,6.4-1.5,9.4,2.1,2.6,6,3,8.8,1.2l.4-.2c1-.5,2.1-.4,3,.3.7.5,1.2,1.4,1.2,2.4l-.3,1.3-2.4,3.6c-2,2.9-1.2,6.9,1.8,8.8s6.9,1.2,8.8-1.8l3.9-5.9s0,0,0,0c.7-.9,2.3-1.2,3.4-.5.8.5,1.3,1.5,1,2.5l-.3,1.8c-.7,3.2,1.2,6.3,4.1,7.4.3,0,.6.2.8.2,3.5.7,6.9-1.5,7.6-5l6.3-30.6c.7-3.5-1.5-6.9-5-7.6Z"/>
</svg>